PathFileType	4	(X/Y/Z)	/Users/niels/Desktop/University/Third Semester/Perception and Action/Exam/Gymnastics Motion Tracking/Code for Gym Tracking/Analyzed Data/Webcam_Backflip/id1_2_baseline_Sports2D/id1_2_baseline_Sports2D_px_person00.trc
DataRate	CameraRate	NumFrames	NumMarkers	Units	OrigDataRate	OrigDataStartFrame	OrigNumFrames
29.874476987447697	29.874476987447697	12	22	m	29.874476987447697	119	239
Frame#	Time	Hip			RHip			RKnee			RAnkle			RBigToe			RSmallToe			RHeel			LHip			LKnee			LAnkle			LBigToe			LSmallToe			LHeel			Neck			Head			Nose			RShoulder			RElbow			RWrist			LShoulder			LElbow			LWrist		
		X1	Y1	Z1	X2	Y2	Z2	X3	Y3	Z3	X4	Y4	Z4	X5	Y5	Z5	X6	Y6	Z6	X7	Y7	Z7	X8	Y8	Z8	X9	Y9	Z9	X10	Y10	Z10	X11	Y11	Z11	X12	Y12	Z12	X13	Y13	Z13	X14	Y14	Z14	X15	Y15	Z15	X16	Y16	Z16	X17	Y17	Z17	X18	Y18	Z18	X19	Y19	Z19	X20	Y20	Z20	X21	Y21	Z21	X22	Y22	Z22
119	3.9833333333333334	0.8576531175686462	-0.6050554990754601	0.0	0.8490846293618047	-0.6078972169745668	0.0	0.8735717416358203	-0.7166307774518055	0.0	0.8840965830495477	-0.832373764557267	0.0	0.9274915917159128	-0.8398688316204426	0.0	0.9189751682025117	-0.846581718899012	0.0	0.8769192734490516	-0.8466917402791886	0.0	0.870171034365039	-0.5954793488999682	0.0	0.9268897501072902	-0.6434876146935549	0.0	0.8446124908442447	-0.6944336649911302	0.0	0.8474300412279729	-0.7229575807498783	0.0	0.8431148710114565	-0.722993323102876	0.0	0.8252907155841588	-0.695131921203795	0.0	0.8464508369081799	-0.4510592523940872	0.0	0.8963729555461333	-0.3844156758703357	0.0	0.8907394211675267	-0.4307017456016436	0.0	0.8281583241339441	-0.45944614196993444	0.0	0.789647452747252	-0.4949551904736174	0.0	0.8288166115478232	-0.4520371927968153	0.0	0.8429999183988334	-0.46394121236155245	0.0	0.810200467097194	-0.522092651214717	0.0	0.7978493186221656	-0.5755757028180544	0.0
120	4.016806722689076	0.8486423828977339	-0.6117513261912092	0.0	0.8420218698630706	-0.6137274241520313	0.0	0.8732442208561044	-0.7184601082989553	0.0	0.884155168637353	-0.8340846311963048	0.0	0.9274914695435101	-0.8408980023879105	0.0	0.9200744633269716	-0.8473588707142389	0.0	0.8767925912008886	-0.8480861184540944	0.0	0.8579634750867116	-0.6045661235077322	0.0	0.8989627365407847	-0.6692142811953637	0.0	0.8073129710546765	-0.7147004140805499	0.0	0.8029017328162945	-0.7463353224101614	0.0	0.7985610261726778	-0.7457071465386556	0.0	0.7877644646170129	-0.7138678373953765	0.0	0.8431058049974739	-0.4551894228096714	0.0	0.8914281079863265	-0.3898002620322755	0.0	0.887625809586994	-0.4351273650748532	0.0	0.8209044885406916	-0.4659575130242686	0.0	0.7778047119966768	-0.515222729978862	0.0	0.8195838244064617	-0.48624750759007657	0.0	0.8424886554905614	-0.47036728226936647	0.0	0.8133488700343385	-0.5324506843885992	0.0	0.8138250746373127	-0.5847963666489144	0.0
121	4.050280112044818	0.8384477857076253	-0.6173285061660869	0.0	0.8342402234496961	-0.6184416221355475	0.0	0.8735655870230015	-0.7189218744687634	0.0	0.8840281084848307	-0.8345234339419875	0.0	0.9277460673082236	-0.8405105252285018	0.0	0.9212728033412021	-0.8468032234977436	0.0	0.8762302149007727	-0.8483025821209402	0.0	0.8441902067003764	-0.6126369313780736	0.0	0.8678132422589572	-0.6922653777468801	0.0	0.7723492847535584	-0.7389626444919958	0.0	0.7657600928477715	-0.772631732202579	0.0	0.7615147513076171	-0.7709368057162105	0.0	0.7534315987851744	-0.7385354167543302	0.0	0.8393548750143798	-0.4585722099919577	0.0	0.8865157254547625	-0.3949235206036296	0.0	0.8843160306604471	-0.43976693338791567	0.0	0.8139233081828715	-0.47165797280117855	0.0	0.7675476859947784	-0.529610878533386	0.0	0.8081960714083439	-0.5184020468219511	0.0	0.8401628276806811	-0.4759763685785804	0.0	0.815314539202504	-0.5413513166881966	0.0	0.8279440193916477	-0.5909063528242038	0.0
122	4.08375350140056	0.8276557440734295	-0.6217467149821237	0.0	0.826049484179792	-0.6222741770347059	0.0	0.8740726612165484	-0.7181895708508983	0.0	0.8836033256196958	-0.8337315940861413	0.0	0.9277013912481296	-0.8387611929449743	0.0	0.9219174867121386	-0.8450214077165441	0.0	0.8752700819201227	-0.8474624992518776	0.0	0.8299687908094056	-0.6191862512450572	0.0	0.836766522431279	-0.7102535332137543	0.0	0.7419740153668464	-0.7643498075786997	0.0	0.7388316457570632	-0.7979546093376064	0.0	0.7344382423855362	-0.7954078585365546	0.0	0.7241143728694398	-0.7660308865268718	0.0	0.8351747676082051	-0.46161819212824273	0.0	0.8818526123976991	-0.3999333036982434	0.0	0.8806028776476712	-0.4446589845069839	0.0	0.8073986152746531	-0.47657804368375406	0.0	0.7588455530552741	-0.5386132236485321	0.0	0.7952318365406108	-0.5470853684326371	0.0	0.8365633323668851	-0.4809682264659278	0.0	0.8159112593908502	-0.5496699698149174	0.0	0.8381874406442914	-0.5973035946883424	0.0
123	4.117226890756302	0.8166987347564307	-0.6248775472677638	0.0	0.8175273313049459	-0.6252015470271561	0.0	0.8740276438215585	-0.7163125525456745	0.0	0.882773271956206	-0.831701917936031	0.0	0.927008828867229	-0.8358300173993054	0.0	0.921669883352467	-0.842195203018279	0.0	0.8740277843386917	-0.845662052165782	0.0	0.8160946941581271	-0.6239089392602982	0.0	0.8087077408777964	-0.722391996506815	0.0	0.7178651378087393	-0.7876551532703435	0.0	0.7223235739143528	-0.8187499629633348	0.0	0.7174173884506303	-0.8159024144724372	0.0	0.7011844330928396	-0.7924854048015657	0.0	0.8306378296520328	-0.46440142166936166	0.0	0.8775488322428916	-0.40480752025322936	0.0	0.8764537813333275	-0.44964522274666163	0.0	0.8013338395436879	-0.4805422759986144	0.0	0.7513501426739271	-0.5434833050903775	0.0	0.7817629906111878	-0.5710868376989243	0.0	0.8321228346730095	-0.48521800017073996	0.0	0.8147949614880762	-0.5572655611755442	0.0	0.8434962964889535	-0.6042678108526479	0.0
124	4.150700280112044	0.8059212355944658	-0.6265851810790292	0.0	0.8087418052570614	-0.6270030941819456	0.0	0.8727603929758996	-0.7133059580599104	0.0	0.8815464024544565	-0.8284827452074648	0.0	0.9257012560664973	-0.8319454203197009	0.0	0.9207208016959167	-0.8384709749543238	0.0	0.8726849462104943	-0.8430131799021454	0.0	0.8030514626404076	-0.6266498588618842	0.0	0.7856348055307932	-0.7291587659391979	0.0	0.7006715993723955	-0.8063011183768921	0.0	0.7142641787288031	-0.8332004702492196	0.0	0.7086018739202662	-0.8305334031021535	0.0	0.6851135557590214	-0.8144111408158312	0.0	0.8258543836787698	-0.4666480371529434	0.0	0.8736525431289857	-0.409301676950482	0.0	0.8719901367602467	-0.45434421809069303	0.0	0.7957296120589399	-0.48326835430201814	0.0	0.7446964439555955	-0.5455004583139782	0.0	0.7689192973591892	-0.5895110833703517	0.0	0.8268513104628581	-0.48822626903838157	0.0	0.8111040047531758	-0.5630971208426405	0.0	0.8432994925996784	-0.6100208225241348	0.0
125	4.184173669467787	0.7957043282323024	-0.626787347255317	0.0	0.7998961980721666	-0.6274022913860154	0.0	0.8699301928935884	-0.7092781262601234	0.0	0.8800771670580915	-0.8242874712047442	0.0	0.9240514588034884	-0.8274235808688329	0.0	0.9195087853248619	-0.8340221881034265	0.0	0.8714711622380967	-0.8396481997397374	0.0	0.7913379803267067	-0.6273508658430412	0.0	0.7686344145422671	-0.7316127207889995	0.0	0.6899720467900348	-0.8189453866648059	0.0	0.7117057944126151	-0.8413221832023696	0.0	0.7052737005163936	-0.8390433285297112	0.0	0.6753424750794532	-0.8297071987221537	0.0	0.8209699660471006	-0.4679088259798422	0.0	0.8701732470008364	-0.41299549460121243	0.0	0.8674038004301458	-0.4581803001450333	0.0	0.7905658195044254	-0.48443278315044896	0.0	0.7386766854483321	-0.5455031583812746	0.0	0.7575662047016494	-0.6019059273375884	0.0	0.8207494075168407	-0.4894284251835578	0.0	0.8042552301556483	-0.5660242559750728	0.0	0.8376764779139146	-0.6132417482069571	0.0
126	4.2176470588235295	0.786474242785595	-0.6254818705856191	0.0	0.7913575723977078	-0.6262171302962025	0.0	0.8656053691746826	-0.7045024747632928	0.0	0.8785650710220605	-0.819480374569144	0.0	0.922296278613514	-0.8226434350050381	0.0	0.918302284257	-0.8291189984901898	0.0	0.8705706376663028	-0.8357182166735458	0.0	0.781450686748994	-0.6260923781399357	0.0	0.7577042845445874	-0.7308559256223137	0.0	0.6845102632332484	-0.8255166705824568	0.0	0.7120174608851361	-0.844133996916077	0.0	0.7049789315843061	-0.8422580611060783	0.0	0.6705120935241535	-0.8380136535140408	0.0	0.8161461554616092	-0.4677678189082743	0.0	0.8670424499558382	-0.4154340556293212	0.0	0.8628559879621582	-0.46058154188422495	0.0	0.7858014924326718	-0.4837745108395181	0.0	0.7331875210250609	-0.5438661239005443	0.0	0.7481757283391307	-0.6084272957838158	0.0	0.8141133049328417	-0.48852236429530427	0.0	0.7947278695769344	-0.5654345906209854	0.0	0.8276534984817977	-0.6136271611219668	0.0
127	4.251120448179272	0.7786087471984314	-0.6227656006893946	0.0	0.7835817477821581	-0.6234581105261904	0.0	0.8602125913619628	-0.6993752694795389	0.0	0.8771494437872942	-0.8144646768859567	0.0	0.9205222818312708	-0.8178776271747438	0.0	0.9171078287801173	-0.8240471523786519	0.0	0.8700199781532154	-0.8314191287150182	0.0	0.7736445158851593	-0.6231162970999518	0.0	0.7517553336612838	-0.7278154797404941	0.0	0.6826028223932935	-0.8269343484907229	0.0	0.713573553971941	-0.8429531979388794	0.0	0.7061333405998221	-0.8414703563560224	0.0	0.6689294732810325	-0.8403869542758576	0.0	0.8115219370139811	-0.46602253596579946	0.0	0.8641489791083832	-0.41627655473241065	0.0	0.8584209255326584	-0.4611870538716756	0.0	0.7814235863594363	-0.4812600814771834	0.0	0.7281586109118279	-0.5407606154697623	0.0	0.7408225981482449	-0.6098759618158992	0.0	0.8074552155281483	-0.4855780972653775	0.0	0.7840111946093412	-0.5614730440410345	0.0	0.8150857556577114	-0.6113935473890719	0.0
128	4.284593837535014	0.7723363726055527	-0.6188658532643856	0.0	0.7769668092842197	-0.6193336229738325	0.0	0.8543752661899245	-0.6943138800339732	0.0	0.8759023134178713	-0.8095770820011566	0.0	0.9187771528225829	-0.8132039329595344	0.0	0.9158770258700915	-0.8189998801816818	0.0	0.8697288730156264	-0.8269962251391257	0.0	0.7678869785094956	-0.618775689557867	0.0	0.7490502542030637	-0.7232509631642354	0.0	0.6826249120570048	-0.8246837361678062	0.0	0.7156787919459867	-0.8391220753584933	0.0	0.7080054798494532	-0.8380746809557675	0.0	0.6690735359538175	-0.8385997236612964	0.0	0.8071937139722486	-0.46279011593495833	0.0	0.8614386041113213	-0.41539372417797493	0.0	0.8541289188292602	-0.45992587827329373	0.0	0.7774603151906484	-0.4771834260140453	0.0	0.7235830211356379	-0.5364339615353076	0.0	0.7352948834449988	-0.607521522669542	0.0	0.8012962257992517	-0.48098665416588116	0.0	0.7739687315036077	-0.5550893101122861	0.0	0.8021198129538214	-0.6071392497268293	0.0
129	4.318067226890756	0.7676759277008158	-0.6141458509155548	0.0	0.7717468290183742	-0.6142032216686231	0.0	0.8486777969840597	-0.6896775460120356	0.0	0.8748539211768228	-0.8050530780059248	0.0	0.9171487616694738	-0.8086052986699284	0.0	0.9146277223240432	-0.8140845636246173	0.0	0.8695658178544585	-0.822703303605858	0.0	0.7639466398315855	-0.6135015948237341	0.0	0.747854535276037	-0.7178337521999358	0.0	0.6833665041315751	-0.8203670148179387	0.0	0.7181053477896329	-0.8338993151401036	0.0	0.7103441730325096	-0.8333369548252652	0.0	0.6698804287159894	-0.8344782956857145	0.0	0.8032329730975889	-0.4584634041521468	0.0	0.8589268408251699	-0.41292719303136644	0.0	0.8500640029788434	-0.45702695082091394	0.0	0.7739780098673543	-0.472099738083219	0.0	0.7195645630482482	-0.5313278899863707	0.0	0.7312701823567929	-0.6028248797596484	0.0	0.79600935095772	-0.4753371693080245	0.0	0.766064994552796	-0.5477000062875215	0.0	0.7903179147956242	-0.6017998526204619	0.0
130	4.351540616246498	0.7644033067074484	-0.6090415851937894	0.0	0.7679619613527305	-0.6085176815796164	0.0	0.8435033368970423	-0.6857260669125612	0.0	0.8739977827938004	-0.8010491851181437	0.0	0.9157416922196806	-0.8040968662755451	0.0	0.9134461895215508	-0.8093933324117979	0.0	0.8694293023387927	-0.818759957539578	0.0	0.7613779534417066	-0.6077871862158299	0.0	0.7469308288098722	-0.7121880977973731	0.0	0.6841313833267759	-0.8153550253557611	0.0	0.7206429505679142	-0.8283551232982964	0.0	0.7129379688060152	-0.8282610927327662	0.0	0.6707521023077037	-0.8295212897484143	0.0	0.7997190231291362	-0.4535669175456881	0.0	0.8566643294887372	-0.40929089401659846	0.0	0.8463981082357661	-0.4529677502073915	0.0	0.7710718963744921	-0.4666534091283676	0.0	0.7163095253425422	-0.526013772931169	0.0	0.7284480201769921	-0.5971683140912121	0.0	0.7917258167941811	-0.4692584904202717	0.0	0.7608137180006489	-0.5405338133635718	0.0	0.7800220594985845	-0.5963468093899535	0.0
